<?xml version="1.0" encoding="UTF-8" standalone="no"?>
<!-- Created with Inkscape (http://www.inkscape.org/) -->

<svg
   version="1.1"
   id="svg921"
   xml:space="preserve"
   width="682.66669"
   height="682.66669"
   viewBox="0 0 682.66669 682.66669"
   xmlns="http://www.w3.org/2000/svg"
   xmlns:svg="http://www.w3.org/2000/svg"><defs
     id="defs925"><clipPath
       clipPathUnits="userSpaceOnUse"
       id="clipPath947"><path
         d="M 0,512 H 512 V 0 H 0 Z"
         id="path945" /></clipPath><clipPath
       clipPathUnits="userSpaceOnUse"
       id="clipPath979"><path
         d="M 0,512 H 512 V 0 H 0 Z"
         id="path977" /></clipPath></defs><g
     id="g927"
     transform="matrix(1.3333333,0,0,-1.3333333,0,682.66667)"><g
       id="g929"
       transform="translate(166,442)"><path
         d="M 0,0 H 30"
         style="fill:none;stroke:#000000;stroke-width:20;stroke-linecap:round;stroke-linejoin:round;stroke-miterlimit:10;stroke-dasharray:none;stroke-opacity:1"
         id="path931" /></g><g
       id="g933"
       transform="translate(256,442)"><path
         d="M 0,0 H 90"
         style="fill:none;stroke:#000000;stroke-width:20;stroke-linecap:round;stroke-linejoin:round;stroke-miterlimit:10;stroke-dasharray:none;stroke-opacity:1"
         id="path935" /></g><g
       id="g937"
       transform="translate(286,196)"><path
         d="m 0,0 h 120 l 60,60 -60,60 H -210 V 0 Z"
         style="fill:none;stroke:#000000;stroke-width:20;stroke-linecap:round;stroke-linejoin:round;stroke-miterlimit:10;stroke-dasharray:none;stroke-opacity:1"
         id="path939" /></g><g
       id="g941"><g
         id="g943"
         clip-path="url(#clipPath947)"><g
           id="g949"
           transform="translate(286,10)"><path
             d="M 0,0 H 60"
             style="fill:none;stroke:#000000;stroke-width:20;stroke-linecap:round;stroke-linejoin:round;stroke-miterlimit:10;stroke-dasharray:none;stroke-opacity:1"
             id="path951" /></g><g
           id="g953"
           transform="translate(166,10)"><path
             d="M 0,0 H 60"
             style="fill:none;stroke:#000000;stroke-width:20;stroke-linecap:round;stroke-linejoin:round;stroke-miterlimit:10;stroke-dasharray:none;stroke-opacity:1"
             id="path955" /></g></g></g><g
       id="g957"
       transform="translate(166,256)"><path
         d="M 0,0 H 30"
         style="fill:none;stroke:#000000;stroke-width:20;stroke-linecap:round;stroke-linejoin:round;stroke-miterlimit:10;stroke-dasharray:none;stroke-opacity:1"
         id="path959" /></g><g
       id="g961"
       transform="translate(256,256)"><path
         d="M 0,0 H 90"
         style="fill:none;stroke:#000000;stroke-width:20;stroke-linecap:round;stroke-linejoin:round;stroke-miterlimit:10;stroke-dasharray:none;stroke-opacity:1"
         id="path963" /></g><g
       id="g965"
       transform="translate(226,316)"><path
         d="M 0,0 V 66"
         style="fill:none;stroke:#000000;stroke-width:20;stroke-linecap:round;stroke-linejoin:round;stroke-miterlimit:10;stroke-dasharray:none;stroke-opacity:1"
         id="path967" /></g><g
       id="g969"
       transform="translate(286,382)"><path
         d="M 0,0 V -66"
         style="fill:none;stroke:#000000;stroke-width:20;stroke-linecap:round;stroke-linejoin:round;stroke-miterlimit:10;stroke-dasharray:none;stroke-opacity:1"
         id="path971" /></g><g
       id="g973"><g
         id="g975"
         clip-path="url(#clipPath979)"><g
           id="g981"
           transform="translate(286,196)"><path
             d="M 0,0 V -186 H -60 V 0"
             style="fill:none;stroke:#000000;stroke-width:20;stroke-linecap:round;stroke-linejoin:round;stroke-miterlimit:10;stroke-dasharray:none;stroke-opacity:1"
             id="path983" /></g><g
           id="g985"
           transform="translate(266.0005,502)"><path
             d="m 0,0 c 0,-5.523 -4.477,-10 -10,-10 -5.523,0 -10,4.477 -10,10 0,5.523 4.477,10 10,10 C -4.477,10 0,5.523 0,0"
             style="fill:#000000;fill-opacity:1;fill-rule:nonzero;stroke:none"
             id="path987" /></g><g
           id="g989"
           transform="translate(211,502)"><path
             d="m 0,0 h -105 l -60,-60 60,-60 H 225 V 0 H 90"
             style="fill:none;stroke:#000000;stroke-width:20;stroke-linecap:round;stroke-linejoin:round;stroke-miterlimit:10;stroke-dasharray:none;stroke-opacity:1"
             id="path991" /></g></g></g></g></svg>
